<svg width="209" height="75" viewBox="0 0 209 75" fill="none" xmlns="http://www.w3.org/2000/svg">
<g clip-path="url(#clip0_749_23)">
<path d="M76.8458 52.4873C76.5625 54.3119 75.6975 55.9974 74.3784 57.2954C73.0927 58.6016 71.4005 59.4359 69.5774 59.6624C68.655 59.763 67.7217 59.6621 66.8425 59.3666C65.9398 59.0752 65.1229 58.5671 64.4642 57.8872C63.8049 57.1617 63.3309 56.2889 63.0819 55.3426C62.8271 54.3769 62.7815 53.3683 62.9482 52.3837C63.2704 50.484 64.2354 48.751 65.6831 47.4721C67.0672 46.2121 68.8365 45.4514 70.7071 45.3122C71.6251 45.246 72.546 45.3929 73.3973 45.7412C74.2504 46.087 75.0021 46.6418 75.5824 47.3538C76.1596 48.0728 76.5659 48.9123 76.7714 49.8096C76.9597 50.6902 76.985 51.5977 76.8458 52.4873V52.4873ZM76.3403 52.4873C76.488 51.6455 76.488 50.7846 76.3403 49.9428C76.1709 49.1013 75.8156 48.3079 75.2999 47.6201C74.7728 46.9542 74.0743 46.4429 73.2785 46.1407C72.473 45.8385 71.6068 45.732 70.7517 45.83C69.8996 45.9351 69.079 46.2173 68.3436 46.6584C67.6213 47.0897 66.9781 47.6399 66.4412 48.2858C65.3744 49.5547 64.6755 51.0892 64.4197 52.724C64.2861 53.5124 64.2861 54.3175 64.4197 55.1059C64.5306 55.8973 64.8147 56.6549 65.252 57.325C65.7027 58.0235 66.3413 58.5821 67.0951 58.9375C67.8691 59.2996 68.7252 59.4526 69.5774 59.3813C71.3216 59.2206 72.9431 58.419 74.1256 57.1327C75.3316 55.8222 76.1046 54.175 76.3403 52.4134V52.4873Z" fill="white"/>
<path d="M89.3317 58.4345C88.6591 58.788 87.958 59.0848 87.2358 59.3221C86.877 59.4404 86.5092 59.5294 86.1359 59.5884C85.7591 59.662 85.375 59.6917 84.9914 59.6772C84.2069 59.6516 83.4348 59.4758 82.7172 59.1594C81.9794 58.808 81.3256 58.3035 80.7997 57.68C79.7143 56.4601 79.1445 54.87 79.2093 53.2418C79.2469 51.6476 79.7647 50.1014 80.6957 48.8036C81.6194 47.5203 82.8648 46.5002 84.3077 45.8447C85.6957 45.1891 87.2565 44.9871 88.7668 45.2678C89.5323 45.4293 90.2558 45.7467 90.8923 46.1998C91.5323 46.6543 92.0734 47.233 92.4828 47.9011C93.2909 49.2895 93.6635 50.8865 93.5529 52.4873L92.0666 52.2653C92.4612 50.9474 92.3552 49.5311 91.7692 48.2857C91.4633 47.6596 91.0217 47.1089 90.476 46.6732C89.9258 46.2393 89.2864 45.9313 88.6032 45.7708C87.9067 45.6301 87.1891 45.6301 86.4926 45.7708C85.7962 45.9038 85.1276 46.154 84.5156 46.5105C83.3106 47.2235 82.32 48.2453 81.647 49.4693C80.9726 50.6421 80.576 51.9525 80.4876 53.3009C80.3634 54.6349 80.6875 55.9721 81.4091 57.103C81.7791 57.707 82.2887 58.2142 82.8955 58.5824C83.5058 58.932 84.1857 59.144 84.8872 59.2038C85.2436 59.2263 85.6012 59.2263 85.9576 59.2038C86.3147 59.1819 86.6684 59.1224 87.0128 59.0262C87.714 58.8314 88.3669 58.4939 88.9303 58.0351L89.3317 58.4345Z" fill="white"/>
<path d="M93.5676 51.9547H80.0564V52.4281H93.5676V51.9547Z" fill="white"/>
<path d="M79.7146 38.9211C79.2929 39.2439 78.9815 39.6881 78.8228 40.1934C78.7522 40.4 78.7024 40.6131 78.6742 40.8295L78.5404 41.4805C78.4513 41.8947 78.3769 42.3237 78.3026 42.7528C78.2282 43.1818 78.139 43.6108 78.0796 44.0398L77.6931 46.6141L77.3364 49.203L76.9648 51.7772C76.8459 52.6353 76.6825 53.4933 76.5041 54.3514C76.3257 55.2094 76.1621 56.0527 76.0432 56.9107C76.0432 57.1326 76.0432 57.3397 76.0432 57.5617V58.2126C76.0011 58.4325 76.0011 58.6584 76.0432 58.8783C76.1444 59.1274 76.3081 59.3465 76.5188 59.5145H75.3L76.9202 49.1586L78.5553 38.9507L79.7146 38.9211Z" fill="white"/>
<path d="M131.485 44.6316H130.549V70.7727H131.485V44.6316Z" fill="white"/>
<path d="M128.646 71.8527C129.154 71.5394 129.602 71.1386 129.969 70.6691C130.25 70.32 130.466 69.9244 130.608 69.5004C130.669 69.308 130.709 69.1096 130.727 68.9086C130.727 68.7163 130.727 68.5093 130.727 68.3169C130.727 68.1246 130.727 67.5328 130.727 67.1481V65.9646C130.727 65.5652 130.727 65.1806 130.727 64.7811C130.727 63.997 130.727 63.2129 130.623 62.4288H131.143C131.143 63.2129 131.039 63.997 131.039 64.7811C131.039 65.1806 131.039 65.5652 131.039 65.9646V67.1481C131.039 67.5328 131.039 67.9323 131.039 68.3169C131.039 68.7016 131.039 68.7163 131.039 68.9086C131.057 69.1096 131.097 69.308 131.158 69.5004C131.301 69.9244 131.517 70.32 131.797 70.6691C132.161 71.142 132.609 71.5434 133.12 71.8527H128.646Z" fill="white"/>
<path d="M133.299 44.6316C132.774 44.9331 132.314 45.3353 131.946 45.8151C131.671 46.159 131.473 46.5576 131.366 46.9839C131.29 47.3739 131.25 47.7701 131.247 48.1674C131.247 48.5668 131.247 48.9515 131.247 49.3509C131.247 50.135 131.247 50.919 131.247 51.7031C131.247 52.4872 131.247 53.2713 131.351 54.0554H130.831C130.831 53.2713 130.921 52.4872 130.935 51.7031C130.95 50.919 130.935 50.135 130.935 49.3509C130.935 48.9515 130.935 48.5668 130.935 48.1674C130.933 47.7701 130.893 47.3739 130.816 46.9839C130.703 46.56 130.506 46.1626 130.237 45.8151C129.865 45.3387 129.406 44.9371 128.884 44.6316H133.299Z" fill="white"/>
<path d="M123.043 46.1849L114.6 67.1186L112.787 71.6604L112.296 70.536L114.124 65.9942L122.225 45.8743L123.043 46.1849Z" fill="white"/>
<path d="M114.6 67.1186L112.787 71.6603L112.296 70.536L102.07 46.7027L105.266 45.3417L114.124 65.9942L114.6 67.1186Z" fill="white"/>
<path d="M118.851 44.5872H125.138C123.548 44.5872 122.166 48.4189 122.166 48.4189H121.259C121.512 47.546 121.943 44.5872 118.851 44.5872Z" fill="white"/>
<path d="M108.937 44.5872H99.7659C101.341 44.5872 102.739 48.4189 102.739 48.4189H106.529C106.276 47.546 105.905 44.5872 108.937 44.5872Z" fill="white"/>
<path d="M163.888 57.177H137.787V58.0942H163.888V57.177Z" fill="white"/>
<path d="M162.283 64.6924C162.194 64.8974 162.09 65.0953 161.971 65.2842C161.852 65.4618 161.748 65.6393 161.629 65.802C161.51 65.9647 161.138 66.4677 160.886 66.7784C160.351 67.3997 159.816 67.9767 159.236 68.5389C158.953 68.8199 158.671 69.101 158.359 69.3673C158.053 69.6385 157.73 69.8905 157.393 70.1218C156.713 70.57 155.985 70.9421 155.223 71.2314C154.461 71.5203 153.675 71.7431 152.874 71.8971C152.074 72.0458 151.265 72.1348 150.451 72.1634C148.786 72.2534 147.118 72.0378 145.531 71.5273C143.906 71.0033 142.393 70.1803 141.072 69.101C139.708 67.9915 138.56 66.6427 137.683 65.1214C137.249 64.3467 136.886 63.5348 136.598 62.6953L136.405 62.0443C136.405 61.8372 136.286 61.6153 136.242 61.4082C136.138 60.9644 136.063 60.5353 136.004 60.0915C135.89 59.2087 135.85 58.318 135.885 57.4286C135.941 56.5398 136.081 55.6582 136.301 54.7952C136.531 53.9348 136.83 53.0939 137.193 52.2802C137.593 51.4954 138.055 50.7435 138.575 50.0315C139.612 48.6418 140.897 47.4532 142.365 46.5253C143.077 46.0558 143.834 45.6593 144.625 45.3417C145.389 45.0037 146.186 44.746 147.003 44.5725C148.615 44.2021 150.278 44.102 151.923 44.2766C154.414 44.6029 156.76 45.6292 158.686 47.2354C159.344 47.748 159.956 48.3172 160.514 48.9367L160.93 49.4249L161.317 49.9132C161.451 50.0907 161.584 50.2534 161.703 50.4309L162.06 50.9488C162.523 51.6688 162.936 52.4202 163.294 53.1974C164.011 54.8061 164.511 56.5026 164.78 58.2422H160.856C161.138 56.8508 161.138 55.4173 160.856 54.0259C160.704 53.3118 160.485 52.6135 160.202 51.9399L159.979 51.4517C159.91 51.277 159.825 51.1087 159.727 50.9488L159.459 50.4753C159.355 50.3274 159.266 50.1647 159.147 50.0167C158.711 49.3958 158.213 48.8208 157.66 48.3006C157.127 47.7768 156.539 47.3107 155.906 46.9099C154.644 46.0827 153.212 45.5469 151.715 45.3417C150.219 45.1151 148.69 45.247 147.256 45.7264C146.55 45.9745 145.872 46.2969 145.234 46.6881C144.618 47.0985 144.041 47.564 143.51 48.0787C142.505 49.1184 141.69 50.325 141.102 51.644C140.807 52.2781 140.569 52.9365 140.389 53.6117C140.181 54.2679 140.031 54.9412 139.943 55.6237C139.496 58.3451 139.752 61.1347 140.686 63.7308C141.177 65.0586 141.874 66.3017 142.752 67.4146C143.194 67.9807 143.692 68.5011 144.238 68.9679C144.801 69.4423 145.414 69.854 146.067 70.1958C147.411 70.8849 148.895 71.2594 150.407 71.2906C151.924 71.3358 153.436 71.1 154.866 70.5953C155.579 70.3389 156.258 69.9961 156.887 69.5745C157.188 69.354 157.476 69.1169 157.749 68.8644C157.895 68.7389 158.034 68.6055 158.166 68.4649C158.307 68.3343 158.441 68.1961 158.567 68.0507C159.113 67.4866 159.61 66.8779 160.053 66.231C160.262 65.9255 160.446 65.604 160.603 65.2694C160.69 65.1074 160.765 64.9393 160.826 64.7664L160.915 64.5297C160.907 64.4907 160.907 64.4503 160.915 64.4113C160.913 64.3818 160.913 64.3521 160.915 64.3226L162.283 64.6924Z" fill="white"/>
<path d="M49.1993 49.0402C49.1993 49.5284 49.0804 50.0019 48.9912 50.5196L45.8697 48.271C45.7412 47.1123 45.4511 45.9769 45.0076 44.8979C44.485 43.6407 43.7456 42.4842 42.8227 41.4805C40.832 39.4084 38.5181 37.67 35.9705 36.3322C33.3693 34.8528 30.56 33.4621 27.721 31.8939C24.7721 30.389 21.9662 28.6213 19.3378 26.6124C17.9585 25.5526 16.6799 24.369 15.5179 23.0766C14.3107 21.7526 13.3088 20.2567 12.5451 18.6384C12.1734 17.8143 11.8799 16.9575 11.6682 16.0791C11.4675 15.1992 11.3479 14.3029 11.3113 13.4013C11.2808 12.5081 11.3557 11.6144 11.5343 10.7384C11.6255 10.3086 11.7396 9.88383 11.8761 9.46607C12.0076 9.04403 12.1615 8.62926 12.337 8.22342C12.6931 7.43213 13.1369 6.68285 13.6599 5.9895C14.1845 5.31481 14.7662 4.68619 15.3989 4.11062C16.0404 3.56193 16.7264 3.0671 17.4501 2.63121C18.1744 2.21026 18.9297 1.84431 19.7094 1.53646C21.2683 0.943455 22.9056 0.579675 24.5699 0.456523H25.8184C26.2288 0.41944 26.6418 0.41944 27.0522 0.456523C27.8748 0.49904 28.694 0.592924 29.5048 0.737614V0.737614L29.2967 2.21702C28.5386 2.08388 27.8102 1.9803 27.0076 1.92112L25.8482 1.81755C25.4617 1.81755 25.0752 1.81755 24.6887 1.81755C23.1613 1.89576 21.6561 2.21538 20.2296 2.7644C18.8131 3.30412 17.5305 4.14176 16.4692 5.22017C15.4307 6.27089 14.6609 7.55458 14.2247 8.96312C13.9994 9.64686 13.8742 10.3594 13.8531 11.0787C13.8127 11.7824 13.8626 12.4883 14.0017 13.1794C14.2911 14.5488 14.863 15.8436 15.6814 16.9815C16.522 18.1068 17.5236 19.1036 18.6541 19.9403C19.8369 20.8174 21.0785 21.6132 22.3701 22.3221C24.9861 23.8015 27.7953 25.0886 30.6343 26.5089C33.5908 27.9343 36.4508 29.5503 39.1958 31.3466C40.6424 32.2943 42.0049 33.3634 43.2685 34.5421C44.6119 35.7503 45.7913 37.128 46.7765 38.64C47.7795 40.1973 48.5082 41.9133 48.9317 43.7144C49.3113 45.4634 49.4017 47.2623 49.1993 49.0402V49.0402Z" fill="white"/>
<path d="M38.5866 3.44481C38.5866 3.44481 29.8021 -0.81587 23.1877 0.870656C23.6634 0.752303 24.3322 1.44762 24.8376 1.41803C33.5032 0.781884 38.5866 11.5372 38.5866 11.5372V3.44481Z" fill="white"/>
<path d="M77.8121 23.5943C77.8124 25.7521 77.3513 27.8854 76.4595 29.8522C75.571 31.7837 74.2906 33.5114 72.6989 34.9266C69.6573 37.6453 65.7135 39.1491 61.6254 39.1491C57.5373 39.1491 53.5934 37.6453 50.5518 34.9266C48.9558 33.5152 47.6748 31.7866 46.7912 29.8522C45.8896 27.888 45.4231 25.7537 45.4231 23.5943C45.4231 21.4348 45.8896 19.3006 46.7912 17.3364C47.6741 15.3974 48.9552 13.6638 50.5518 12.2472C52.0855 10.8846 53.8594 9.81621 55.7839 9.0961C59.5476 7.67646 63.7031 7.67646 67.4668 9.0961C69.3894 9.81986 71.1627 10.8879 72.6989 12.2472C74.291 13.6679 75.5713 15.4005 76.4595 17.3364C77.3543 19.3022 77.8156 21.4361 77.8121 23.5943ZM73.353 23.5943C73.3548 21.9315 73.1399 20.2757 72.7138 18.6679C72.2865 17.0102 71.5939 15.4316 70.6625 13.9929C69.6851 12.4924 68.3728 11.2368 66.8277 10.324C65.232 9.39298 63.4156 8.90214 61.5659 8.90214C59.7162 8.90214 57.8998 9.39298 56.304 10.324C54.759 11.2368 53.4467 12.4924 52.4693 13.9929C51.5273 15.4278 50.8293 17.0073 50.4032 18.6679C49.9844 20.2771 49.7696 21.932 49.7639 23.5943C49.7686 25.2517 49.9834 26.902 50.4032 28.5059C50.8264 30.1676 51.5247 31.7475 52.4693 33.1809C53.4461 34.6858 54.7583 35.9463 56.304 36.8646C57.8998 37.7957 59.7162 38.2865 61.5659 38.2865C63.4156 38.2865 65.232 37.7957 66.8277 36.8646C68.3735 35.9463 69.6856 34.6858 70.6625 33.1809C71.5964 31.7436 72.2892 30.1646 72.7138 28.5059C73.1608 26.906 73.3956 25.2548 73.4123 23.5943H73.353Z" fill="white"/>
<path d="M136.673 15.8719C136.734 15.4599 136.734 15.0412 136.673 14.6292C136.51 13.8746 136.168 13.1697 135.677 12.5729C134.784 11.29 133.563 10.2684 132.139 9.61404C130.531 8.93733 128.781 8.66042 127.04 8.80733C125.3 8.95425 123.622 9.52059 122.151 10.4573C121.992 10.5523 121.838 10.656 121.69 10.7679C121.532 10.8694 121.383 10.9832 121.244 11.1083C120.656 11.5414 120.118 12.0375 119.639 12.5877C118.695 13.6917 117.937 14.9408 117.394 16.2862C116.86 17.5836 116.481 18.9392 116.265 20.3249C116.047 21.6945 115.992 23.0849 116.101 24.4673C116.101 24.6448 116.101 24.8075 116.101 24.985C116.101 25.1625 116.101 25.3253 116.101 25.5029C116.101 25.6804 116.22 26.1834 116.265 26.5385C116.393 27.2269 116.557 27.9083 116.755 28.5801C116.954 29.2675 117.203 29.9399 117.498 30.592C117.782 31.2594 118.12 31.9026 118.509 32.5152C118.901 33.1461 119.344 33.7447 119.832 34.3054C120.337 34.8461 120.889 35.3412 121.482 35.7848C122.711 36.7182 124.124 37.3836 125.629 37.7376C126.385 37.9089 127.157 37.9982 127.933 38.0039H128.334C127.868 38.3298 127.37 38.6074 126.848 38.8323C126.387 38.8323 125.926 38.7435 125.465 38.6695C122.062 38.1342 118.902 36.5871 116.398 34.2313C115.75 33.6204 115.154 32.9574 114.615 32.249C114.07 31.5222 113.574 30.7613 113.128 29.9707C112.734 29.1601 112.406 28.319 112.147 27.4557C112.016 27.0227 111.906 26.5832 111.82 26.139C111.731 25.6952 111.657 25.2513 111.612 24.8075C111.419 22.9978 111.524 21.1687 111.924 19.3929C112.139 18.5143 112.423 17.6537 112.772 16.8187C113.143 15.9913 113.58 15.1948 114.08 14.4369C114.577 13.6901 115.145 12.9916 115.774 12.3509C116.999 11.0752 118.444 10.0281 120.04 9.25899C120.231 9.15526 120.43 9.06616 120.635 8.99262L121.229 8.74115C121.628 8.58103 122.034 8.4428 122.448 8.32696C124.074 7.8624 125.768 7.67237 127.457 7.76478C128.283 7.79846 129.104 7.90736 129.91 8.0902C130.716 8.25428 131.507 8.48695 132.273 8.78557C133.803 9.37713 135.225 10.217 136.479 11.271C137.731 12.3447 138.862 13.55 139.854 14.8659L136.257 17.0406C136.353 16.8101 136.433 16.5728 136.494 16.3305C136.561 16.1803 136.62 16.0273 136.673 15.8719V15.8719Z" fill="white"/>
<path d="M141.266 29.5712C141.087 29.941 140.894 30.3109 140.701 30.6807C140.508 31.0506 140.299 31.3908 140.091 31.7459C139.639 32.4376 139.142 33.0998 138.605 33.7283C138.085 34.3612 137.513 34.95 136.896 35.4888C136.274 36.0293 135.613 36.5238 134.919 36.9682C134.362 37.3238 133.781 37.6402 133.18 37.9151C132.988 37.768 132.808 37.6047 132.645 37.4268C133.329 37.1736 133.991 36.8618 134.622 36.4948C135.966 35.6735 137.15 34.6158 138.114 33.3733C138.598 32.7567 139.016 32.0924 139.363 31.3908C139.541 31.0358 139.705 30.6956 139.854 30.3257C140.002 29.9559 140.106 29.6008 140.225 29.231L141.266 29.5712Z" fill="white"/>
<path d="M107.257 8.47492C106.975 14.3925 106.945 20.3102 107.034 26.1242C107.102 29.2056 105.974 32.1944 103.883 34.4681C103.616 34.7492 103.333 35.0155 103.051 35.2818C102.768 35.5481 102.456 35.77 102.159 36.0215L101.178 36.6724C100.836 36.8648 100.494 37.0571 100.137 37.2346C98.6988 37.9286 97.1395 38.3405 95.5445 38.4477C93.0129 38.5973 90.4953 37.9788 88.3244 36.6739C86.1534 35.369 84.4315 33.4392 83.386 31.1395L83.1481 30.5477C83.0561 30.3507 82.9766 30.1481 82.9103 29.9411L82.7319 29.305C82.6636 29.1017 82.609 28.8941 82.5684 28.6836L82.4496 28.0475C82.4004 27.833 82.3656 27.6156 82.3454 27.3965V26.7456C82.3454 26.5385 82.3454 26.287 82.3454 26.1242C82.3454 24.6448 82.3454 23.1654 82.3454 21.686C82.3454 20.2066 82.4941 18.7272 82.5387 17.2478C82.5387 16.5081 82.5387 15.7684 82.5387 15.0287C82.5387 14.289 82.5388 13.5493 82.4347 12.8244C82.4347 12.4545 82.4346 12.0995 82.3454 11.7296C82.3267 11.3521 82.2567 10.9789 82.1373 10.6201C82.004 10.2238 81.8029 9.8534 81.5427 9.52533C81.2064 9.09119 80.7996 8.71616 80.3389 8.41577H86.5223C86.5223 11.3746 86.5223 14.3334 86.5223 17.2922C86.5223 20.251 86.5223 23.2099 86.5223 26.1687C86.5223 26.361 86.5223 26.4941 86.5223 26.6421V27.1007C86.5223 27.2486 86.5223 27.3966 86.5223 27.5445V28.0031C86.5223 28.1511 86.5223 28.299 86.5223 28.4469L86.6114 28.8907C86.6114 29.0387 86.6115 29.1866 86.7304 29.3345L86.8641 29.7636C87.2484 30.9474 87.8647 32.0436 88.6774 32.9887C89.5155 33.9919 90.5499 34.8148 91.7177 35.4074C92.8855 36 94.1622 36.3499 95.4701 36.4358C97.5698 36.5847 99.6637 36.0756 101.458 34.9797C103.252 33.8839 104.656 32.2565 105.474 30.3258C106.04 29.0117 106.338 27.5985 106.351 26.1687C106.44 20.251 106.35 14.4074 106.128 8.51934L107.257 8.47492Z" fill="white"/>
<path d="M145.918 39.0987C145.918 37.6192 146.022 36.0215 146.052 34.4829C146.081 32.9443 146.052 31.4205 146.052 29.8819V25.2661V20.6504C145.952 17.3747 147.142 14.1898 149.366 11.7739C150.838 10.2018 152.677 9.01649 154.721 8.32382C156.764 7.63116 158.948 7.4527 161.078 7.80426C163.207 8.15582 165.216 9.02649 166.926 10.3387C168.635 11.6509 169.992 13.3638 170.874 15.3246L171.142 15.9459C171.216 16.1678 171.305 16.3749 171.365 16.5968L171.558 17.2478C171.633 17.4602 171.693 17.6777 171.736 17.8987L171.855 18.5793C171.904 18.7987 171.939 19.0211 171.959 19.245V19.9255C171.959 20.1474 171.959 20.3989 171.959 20.5764C171.959 22.0558 171.959 23.6536 171.959 25.1922C171.959 26.7308 171.766 28.2693 171.707 29.8079C171.647 31.3428 171.692 32.88 171.84 34.409C171.84 34.7936 171.885 35.1782 171.974 35.5628C171.996 35.9571 172.076 36.3459 172.212 36.7168C172.401 37.15 172.674 37.542 173.015 37.8707C173.484 38.3449 174.032 38.7352 174.635 39.0247H167.634C167.634 35.9475 167.634 32.8703 167.634 29.8079C167.634 28.3285 167.634 26.7308 167.634 25.1922C167.634 23.6536 167.634 22.115 167.723 20.5764V19.6001C167.738 19.4475 167.738 19.294 167.723 19.1415V18.668C167.738 18.5106 167.738 18.3521 167.723 18.1946L167.634 17.736C167.605 17.579 167.56 17.4253 167.5 17.2774L167.367 16.8188C166.955 15.5927 166.309 14.4573 165.464 13.4753C164.583 12.4429 163.503 11.5967 162.288 10.9868C161.072 10.377 159.747 10.0158 158.389 9.92468C156.956 9.81851 155.516 10.011 154.163 10.4899C152.809 10.9688 151.57 11.7236 150.526 12.706C149.451 13.7096 148.596 14.9234 148.014 16.2714C147.424 17.6319 147.111 19.095 147.092 20.5764V25.1922V29.8079C147.092 31.2873 147.092 32.8704 147.092 34.409C147.092 35.9475 147.092 37.4861 147.241 39.0247L145.918 39.0987Z" fill="white"/>
<path d="M107.257 8.47485V12.2621V16.0346C107.257 18.5644 107.153 21.0794 107.109 23.6092C107.109 24.8667 107.109 26.1242 107.109 27.3817V29.2753V31.169C107.109 32.4265 107.213 33.684 107.257 34.9563C107.26 35.2732 107.285 35.5895 107.332 35.9031C107.394 36.2347 107.51 36.5543 107.673 36.8499C107.857 37.1943 108.093 37.5086 108.372 37.7819C108.724 38.1616 109.135 38.4814 109.591 38.7288H106.232C106.321 37.4713 106.321 36.2138 106.336 34.9563V31.169C106.336 28.654 106.336 26.1242 106.44 23.6092C106.544 21.0942 106.44 18.5644 106.44 16.0346C106.44 14.7771 106.336 13.5196 106.276 12.2621C106.277 11.9444 106.247 11.6274 106.187 11.3153C106.12 10.9849 106.005 10.666 105.845 10.3685C105.668 10.0231 105.443 9.70434 105.176 9.4217C104.848 9.05274 104.468 8.7337 104.047 8.47485H107.257Z" fill="white"/>
<path d="M208.034 21.5232H178.812V22.5588H208.034V21.5232Z" fill="white"/>
<path d="M206.235 29.882C206.188 30.006 206.128 30.125 206.057 30.2371L205.879 30.5477C205.745 30.74 205.626 30.9472 205.492 31.1247C205.236 31.5053 204.958 31.8709 204.66 32.2194C204.065 32.9 203.471 33.5657 202.817 34.1871L201.836 35.1191C201.493 35.4196 201.131 35.6964 200.751 35.9476C199.995 36.4592 199.182 36.8811 198.328 37.205C197.474 37.5255 196.593 37.7729 195.697 37.9447C194.804 38.1098 193.9 38.2087 192.992 38.2406C191.125 38.3513 189.254 38.1104 187.477 37.5306C186.573 37.2293 185.693 36.8583 184.846 36.421C183.999 35.9577 183.194 35.4231 182.438 34.8232C180.908 33.5916 179.623 32.0864 178.648 30.385C178.152 29.5202 177.744 28.6083 177.429 27.6628L177.206 26.9528C177.206 26.716 177.087 26.4794 177.013 26.2279C176.909 25.7397 176.82 25.2514 176.76 24.7484C176.491 22.7731 176.602 20.7648 177.087 18.8308C177.206 18.3426 177.355 17.8692 177.518 17.3514L177.786 16.6561L178.098 15.9756C178.519 15.091 179.016 14.2445 179.585 13.4457C181.309 11.1828 183.592 9.40235 186.212 8.2773C188.832 7.15225 191.7 6.72094 194.537 7.02516C196.375 7.25449 198.154 7.82134 199.784 8.6969C200.606 9.13857 201.383 9.6588 202.103 10.2503C202.847 10.8252 203.533 11.4692 204.154 12.1735C204.318 12.3362 204.467 12.5285 204.615 12.706C204.764 12.8836 204.913 13.0759 205.061 13.2682L205.477 13.8304C205.626 14.0227 205.76 14.2151 205.893 14.4222C206.412 15.2275 206.874 16.0678 207.276 16.9371C208.078 18.7412 208.642 20.6406 208.955 22.5885H204.496C204.817 21.0265 204.817 19.4164 204.496 17.8544C204.321 17.0608 204.078 16.2836 203.768 15.5318C203.768 15.3394 203.604 15.1471 203.515 14.9696C203.426 14.7921 203.337 14.5997 203.233 14.4222C203.147 14.2349 203.042 14.0564 202.921 13.8896C202.817 13.712 202.713 13.5345 202.594 13.3718C202.13 12.6794 201.597 12.0351 201.003 11.4486C200.4 10.8657 199.743 10.3406 199.041 9.88041C197.624 8.95884 196.02 8.35789 194.344 8.11991C192.663 7.87315 190.946 8.0252 189.335 8.56372C188.54 8.83 187.781 9.19269 187.076 9.64366C186.384 10.1001 185.737 10.6202 185.144 11.1971C184.013 12.3567 183.101 13.7097 182.453 15.1914C182.115 15.9005 181.842 16.6383 181.636 17.3958L181.487 17.9432L181.353 18.5201C181.353 18.89 181.205 19.2598 181.145 19.6445C181.026 20.399 180.967 21.1239 180.922 21.9228C180.878 22.6865 180.878 23.4522 180.922 24.2159C180.922 24.6005 180.922 24.9851 181.056 25.355L181.145 25.932L181.249 26.4941C181.428 27.2486 181.651 27.9735 181.903 28.7133C182.446 30.2021 183.224 31.5954 184.207 32.8408C184.719 33.4761 185.292 34.0608 185.917 34.5866C186.549 35.117 187.236 35.5783 187.968 35.9624C189.471 36.7263 191.126 37.1458 192.813 37.1902C194.537 37.2361 196.254 36.9705 197.882 36.4062C198.677 36.1163 199.436 35.7339 200.141 35.267C200.485 35.0215 200.812 34.7548 201.122 34.4682L201.583 34.0244L202.029 33.5509C202.617 32.9221 203.149 32.244 203.619 31.5242C203.856 31.1812 204.065 30.82 204.244 30.4441C204.335 30.2622 204.415 30.0744 204.481 29.882C204.523 29.7958 204.557 29.7068 204.585 29.6157C204.592 29.5716 204.592 29.5267 204.585 29.4826C204.585 29.4826 204.585 29.379 204.585 29.3938L206.235 29.882Z" fill="white"/>
<path d="M145.725 39.1281C145.725 37.5156 145.725 35.8883 145.725 34.2757C145.725 32.6632 145.725 31.0211 145.725 29.4085L145.888 19.674C145.888 16.4341 145.888 13.1942 145.888 9.95426V7.5132L145.799 5.08704L145.71 2.66079C145.674 2.22386 145.531 1.80233 145.294 1.43285C144.962 0.939969 144.526 0.525776 144.015 0.219727H147.211V7.5132V9.95426L147.063 19.674C147.063 22.9139 147.063 26.1686 147.063 29.4085V31.8347L147.152 34.2757L147.241 36.702C147.241 36.9091 147.241 37.1014 147.241 37.3085C147.275 37.5231 147.351 37.7291 147.464 37.9151C147.58 38.1469 147.742 38.3531 147.939 38.5216C148.191 38.7696 148.483 38.9745 148.801 39.1281H145.725Z" fill="white"/>
<path d="M16.8257 69.0271C12.4479 68.8976 8.29287 67.0757 5.24223 63.9478C2.19159 60.8199 0.485339 56.632 0.485339 52.2728C0.485339 47.9135 2.19159 43.7258 5.24223 40.5979C8.29287 37.47 12.4479 35.648 16.8257 35.5186V35.8144C14.0409 35.8161 11.3014 36.5176 8.86147 37.8537C6.42152 39.1898 4.36002 41.1173 2.86787 43.4576C1.37572 45.798 0.50132 48.4754 0.32567 51.2417C0.15002 54.008 0.678784 56.7736 1.86304 59.2823C3.04729 61.791 4.84867 63.9615 7.10021 65.5927C9.35174 67.2239 11.9805 68.263 14.7429 68.6137C17.5054 68.9644 20.3122 68.6153 22.903 67.5988C25.4938 66.5823 27.7849 64.9313 29.5639 62.7988L30.1883 61.9851C32.2774 59.0808 33.4048 55.6006 33.4136 52.0287H33.711C33.6952 55.6635 32.5476 59.204 30.4262 62.1626C30.2181 62.4437 30.0099 62.7101 29.7869 62.9764C28.2071 64.8723 26.2263 66.3976 23.9858 67.4436C21.7453 68.4895 19.3004 69.0302 16.8257 69.0271Z" fill="white"/>
<path d="M94.1624 74.1901V73.8942C98.8191 73.906 103.435 73.0323 107.763 71.3201C108.298 71.113 110.022 70.4472 110.527 70.1514L110.646 70.4176C110.067 70.7283 108.417 71.3792 107.867 71.5863C103.507 73.3153 98.8554 74.1991 94.1624 74.1901V74.1901Z" fill="white"/>
<path d="M131.292 35.4296C131.168 35.2203 131.059 35.0029 130.965 34.7788V34.7788C130.469 26.64 127.221 18.9077 121.749 12.8391L121.363 12.3953L121.571 12.203L121.972 12.6468C127.6 18.9603 130.888 26.9994 131.292 35.4296Z" fill="white"/>
<path d="M117.766 8.99263C111.139 3.49802 102.787 0.48813 94.1622 0.486027C85.9027 0.451915 77.8753 3.20555 71.3908 8.29735L71.2124 8.0754C77.7454 2.93784 85.8362 0.15802 94.1622 0.190218C102.854 0.194111 111.269 3.23032 117.944 8.77077L117.766 8.99263Z" fill="white"/>
<path d="M94.1623 74.1902C82.7023 74.1902 70.6031 66.2605 59.1877 58.1238L57.0472 56.6444L53.4503 54.0554L50.5666 51.9695C38.7648 43.5073 27.2899 35.9031 16.7515 35.8735V35.5776C27.3791 35.5776 38.8837 43.241 50.745 51.7476L53.6287 53.8188L57.2107 56.4077C57.9242 56.9255 58.6972 57.4433 59.3661 57.8871C70.7369 65.9943 82.7915 73.9091 94.1474 73.9091L94.1623 74.1902Z" fill="white"/>
<path d="M31.1545 54.5584C32.5501 54.5584 33.6814 53.4324 33.6814 52.0434C33.6814 50.6544 32.5501 49.5284 31.1545 49.5284C29.759 49.5284 28.6277 50.6544 28.6277 52.0434C28.6277 53.4324 29.759 54.5584 31.1545 54.5584Z" fill="white"/>
<path d="M32.3883 57.9907C32.1207 53.6708 29.0736 55.0319 28.6723 52.5464C28.271 50.061 31.6451 50.9783 31.6451 50.9783L33.4733 52.65C33.4733 52.65 32.9531 57.68 32.3883 57.9907Z" fill="white"/>
<path d="M61.6255 20.0735C61.94 20.8687 62.4147 21.5913 63.0206 22.1969C63.6265 22.8024 64.3506 23.278 65.1482 23.5944V23.5944C64.3529 23.9106 63.6304 24.3846 63.0248 24.9873C62.4192 25.59 61.9432 26.3091 61.6255 27.1007V27.1007C61.3076 26.3068 60.8297 25.5861 60.2213 24.9831C59.6129 24.38 58.8868 23.9074 58.0879 23.5944V23.5944C58.8887 23.2805 59.616 22.8059 60.2246 22.2001C60.8332 21.5944 61.3101 20.8705 61.6255 20.0735V20.0735Z" fill="white"/>
<path d="M131.024 36.5836C131.249 37.1536 131.589 37.6713 132.024 38.1041C132.459 38.5369 132.979 38.8755 133.551 39.0986C132.979 39.3218 132.459 39.6603 132.024 40.0931C131.589 40.526 131.249 41.0437 131.024 41.6136V41.6136C130.799 41.0422 130.456 40.5237 130.019 40.0908C129.581 39.6579 129.058 39.32 128.483 39.0986V39.0986C129.058 38.8772 129.581 38.5394 130.019 38.1065C130.456 37.6736 130.799 37.155 131.024 36.5836Z" fill="white"/>
<path d="M129.375 48.0194V48.9811C126.856 56.5303 121.949 63.0648 115.388 67.6068L115.566 67.1186C122.152 62.4354 127.005 55.723 129.375 48.0194V48.0194Z" fill="white"/>
</g>
<defs>
<clipPath id="clip0_749_23">
<rect width="209" height="74" fill="white" transform="translate(0 0.190186)"/>
</clipPath>
</defs>
</svg>
