<?xml version="1.0" standalone="no"?>
<!DOCTYPE svg PUBLIC "-//W3C//DTD SVG 20010904//EN"
 "http://www.w3.org/TR/2001/REC-SVG-20010904/DTD/svg10.dtd">
<svg version="1.0" xmlns="http://www.w3.org/2000/svg"
 width="293.000000pt" height="293.000000pt" viewBox="0 0 293.000000 293.000000"
 preserveAspectRatio="xMidYMid meet">
<metadata>
Created by potrace 1.14, written by Peter Selinger 2001-2017
</metadata>
<g transform="translate(0.000000,293.000000) scale(0.100000,-0.100000)"
fill="#000000" stroke="none">
<path d="M1460 2898 c-8 -18 -15 -35 -15 -38 0 -3 -4 -11 -8 -17 -5 -7 -5 -18
-2 -23 4 -6 3 -9 -2 -8 -4 2 -8 1 -8 -2 0 -3 -8 -16 -17 -29 -9 -13 -14 -30
-11 -39 4 -9 2 -13 -4 -9 -6 4 -14 0 -17 -9 -4 -10 -2 -13 7 -9 6 4 3 -1 -7
-9 -11 -9 -16 -16 -10 -16 5 0 5 -3 -1 -8 -15 -11 -35 -50 -35 -67 0 -9 -3
-14 -8 -11 -4 2 -16 -13 -26 -35 -11 -21 -23 -39 -28 -39 -5 0 -7 -4 -4 -8 3
-5 -4 -18 -14 -30 -11 -12 -20 -26 -20 -32 0 -5 -5 -10 -11 -10 -6 0 -8 -7 -5
-16 3 -8 2 -12 -4 -9 -9 6 -14 -8 -11 -27 0 -5 -5 -8 -12 -8 -7 0 -20 -15 -30
-33 -10 -18 -33 -50 -52 -70 -19 -21 -35 -43 -35 -48 0 -5 -7 -12 -15 -15 -8
-3 -17 -14 -20 -25 -4 -10 -13 -19 -21 -19 -8 0 -13 -6 -11 -12 1 -7 -4 -12
-11 -10 -8 1 -11 -2 -8 -7 4 -5 -5 -18 -19 -29 -13 -11 -21 -22 -18 -26 3 -3
-2 -6 -12 -6 -10 0 -16 -3 -12 -6 7 -7 -49 -64 -63 -64 -6 0 -10 -7 -10 -15 0
-8 -7 -15 -16 -15 -9 0 -12 -5 -8 -12 5 -8 2 -9 -10 -5 -9 4 -15 3 -12 -2 3
-5 -1 -12 -10 -15 -8 -3 -12 -11 -8 -17 4 -7 3 -9 -4 -5 -6 3 -18 -4 -26 -16
-9 -12 -16 -19 -16 -16 0 4 -17 -9 -37 -27 -21 -19 -44 -35 -51 -35 -7 0 -11
-4 -7 -9 3 -5 -4 -12 -15 -16 -11 -3 -20 -11 -20 -16 0 -11 -50 -34 -65 -30
-5 2 -7 -1 -3 -5 11 -10 -30 -37 -44 -28 -7 4 -8 3 -4 -4 4 -8 0 -12 -11 -12
-15 0 -16 -2 -3 -10 12 -8 11 -10 -7 -10 -12 0 -32 -10 -44 -22 -12 -13 -19
-16 -15 -8 5 9 2 9 -7 -2 -8 -10 -17 -15 -20 -11 -4 3 -7 1 -7 -5 0 -9 -40
-28 -48 -23 -2 1 -10 -6 -19 -16 -9 -11 -12 -12 -8 -3 4 10 2 9 -8 -2 -8 -10
-17 -15 -20 -11 -4 3 -7 2 -7 -4 0 -10 -46 -28 -63 -25 -4 1 -6 -3 -5 -9 2 -6
-8 -13 -22 -15 -13 -3 -27 -8 -30 -13 -3 -4 -18 -11 -33 -15 -15 -4 -26 -10
-23 -14 2 -4 -4 -9 -15 -10 -10 -1 -27 -3 -38 -4 -11 -1 -17 -8 -14 -15 3 -7
9 -10 14 -7 5 3 9 0 9 -6 0 -6 5 -8 10 -5 6 3 10 1 10 -5 0 -6 4 -9 9 -5 5 3
15 -1 23 -8 7 -8 21 -13 30 -11 9 1 19 -5 22 -13 4 -8 13 -13 21 -9 8 3 15 1
15 -4 0 -5 10 -11 23 -15 37 -11 67 -28 61 -36 -2 -4 5 -6 16 -4 11 2 18 0 15
-6 -4 -5 1 -9 9 -9 9 0 16 -5 16 -11 0 -5 4 -8 9 -4 5 3 16 -1 24 -9 8 -8 17
-12 21 -9 3 4 6 1 6 -5 0 -7 7 -12 15 -12 8 0 15 -4 15 -10 0 -5 7 -10 15 -10
8 0 15 -5 15 -11 0 -5 5 -7 10 -4 6 3 10 1 10 -4 0 -6 7 -11 15 -11 8 0 15 -8
15 -17 0 -13 3 -14 8 -6 6 9 12 7 22 -7 8 -11 18 -20 22 -20 12 0 98 -63 98
-72 0 -4 6 -8 14 -8 8 0 17 -7 20 -16 3 -8 10 -13 15 -9 5 3 12 -4 16 -15 3
-11 11 -20 17 -20 6 0 20 -9 32 -21 12 -11 63 -60 114 -109 50 -49 92 -94 92
-100 0 -6 5 -8 10 -5 6 3 10 -1 10 -10 0 -9 5 -13 10 -10 6 3 10 1 10 -5 0 -6
9 -21 20 -33 60 -68 76 -87 90 -108 8 -12 23 -31 32 -41 10 -10 19 -23 20 -30
2 -6 10 -19 18 -29 34 -40 40 -49 40 -59 0 -5 5 -10 10 -10 6 0 9 -6 8 -12 -2
-7 3 -12 10 -10 8 1 11 -2 6 -9 -4 -7 1 -18 11 -26 11 -7 15 -13 11 -13 -4 0
2 -13 13 -29 11 -15 18 -31 14 -35 -3 -3 -1 -6 5 -6 7 0 12 -7 12 -16 0 -8 4
-13 8 -10 4 2 9 -5 9 -16 1 -12 6 -24 11 -27 11 -8 47 -84 44 -93 -1 -5 3 -8
9 -8 6 0 8 -9 4 -20 -4 -14 -2 -20 7 -18 8 2 12 -4 10 -14 -2 -10 2 -18 8 -18
5 0 10 -8 10 -19 0 -10 7 -24 15 -31 12 -10 15 -10 15 4 0 9 5 16 10 16 6 0 9
3 8 8 -4 13 21 72 31 72 5 0 7 9 4 20 -3 12 0 20 8 20 7 0 10 3 6 6 -3 4 1 13
9 21 8 9 13 21 10 28 -3 8 2 16 10 19 9 3 14 12 11 19 -2 6 5 20 16 30 11 9
17 17 13 17 -4 0 7 21 25 47 18 25 26 42 18 38 -8 -4 -4 2 9 14 12 12 19 28
16 34 -4 7 -3 9 1 4 5 -4 20 12 33 35 14 23 32 50 41 60 9 10 14 20 11 23 -3
2 9 16 25 30 17 15 23 24 15 20 -8 -4 0 6 18 24 18 17 30 31 26 31 -4 0 3 9
15 19 12 11 23 23 24 28 1 4 5 7 10 5 4 -1 7 3 7 9 0 6 9 22 20 36 11 14 20
22 20 18 0 -4 10 5 22 21 12 16 38 44 58 63 19 19 34 38 32 43 -1 4 3 8 8 8 6
0 22 12 35 26 14 15 25 24 25 20 0 -3 19 13 41 36 23 24 38 37 34 29 -6 -10
-4 -12 4 -7 7 5 10 14 7 22 -3 8 0 11 10 7 8 -3 14 1 14 11 0 9 3 15 8 14 15
-4 52 23 46 34 -4 7 -3 8 5 4 6 -4 14 0 17 8 3 9 9 14 13 12 4 -3 22 8 41 24
19 16 37 27 42 24 4 -3 5 3 1 12 -4 11 -3 15 5 10 13 -8 84 38 74 48 -3 4 1 4
11 0 10 -4 17 -1 17 6 0 7 7 10 16 6 8 -3 12 -2 9 4 -6 9 8 14 28 11 4 0 7 6
7 15 0 8 5 12 10 9 6 -3 10 -1 10 4 0 6 3 11 8 10 15 -2 52 14 52 22 0 5 7 9
15 9 8 0 15 4 15 10 0 5 7 7 15 4 8 -4 15 -1 15 6 0 6 4 9 8 6 5 -3 18 2 28
12 10 9 28 19 39 20 11 2 29 11 39 20 15 13 17 14 11 2 -8 -13 -6 -13 8 -2 9
8 22 10 28 6 9 -5 10 -2 6 10 -4 9 -3 15 1 12 4 -2 14 -1 21 3 8 5 -5 14 -36
26 -26 10 -53 22 -60 27 -7 5 -17 7 -23 3 -5 -3 -10 -2 -10 4 0 5 -16 15 -35
22 -19 7 -35 17 -35 22 0 4 -4 5 -10 2 -5 -3 -10 -1 -10 6 0 7 -3 9 -6 6 -4
-4 -19 2 -34 13 -16 11 -35 20 -44 20 -9 0 -19 7 -22 15 -4 8 -10 12 -15 9 -5
-3 -9 0 -9 5 0 6 -7 11 -15 11 -8 0 -15 5 -15 11 0 5 -4 7 -10 4 -5 -3 -10 -1
-10 5 0 6 -4 8 -10 5 -5 -3 -10 -3 -10 2 0 4 -21 21 -48 37 -26 16 -55 38 -65
48 -10 10 -22 16 -28 13 -5 -4 -9 -2 -9 3 0 5 -15 20 -34 33 -19 13 -32 28
-29 33 3 5 1 6 -4 3 -6 -4 -23 5 -37 18 -15 14 -32 25 -37 25 -6 0 -7 5 -4 10
3 6 1 10 -5 10 -6 0 -38 27 -72 60 -33 33 -62 60 -64 60 -2 0 -14 11 -28 25
-14 14 -23 25 -20 25 3 0 -1 6 -8 14 -7 8 -16 12 -19 10 -4 -2 -10 7 -13 21
-4 14 -12 24 -19 22 -6 -1 -11 4 -9 11 1 8 -2 11 -7 7 -11 -6 -33 28 -26 39 3
3 2 4 -1 1 -7 -4 -34 19 -34 30 0 3 -10 16 -22 29 -13 13 -30 33 -38 46 -8 12
-21 28 -27 36 -7 7 -13 17 -13 23 0 6 -4 11 -10 11 -5 0 -10 5 -10 11 0 6 -6
17 -12 24 -33 37 -40 47 -34 52 3 4 -3 12 -14 20 -11 8 -20 21 -20 29 0 8 -5
14 -11 14 -5 0 -8 4 -5 9 4 5 2 11 -3 13 -5 1 -11 10 -13 18 -2 8 -5 17 -8 20
-15 15 -51 72 -42 66 13 -8 -18 55 -31 65 -4 3 -9 15 -10 27 0 11 -5 18 -9 16
-4 -3 -8 4 -8 15 0 12 -4 21 -9 21 -5 0 -12 7 -15 16 -4 10 -2 13 7 8 6 -4 4
2 -6 13 -9 11 -14 23 -10 26 3 4 1 7 -5 7 -6 0 -12 11 -14 26 -3 25 -3 24 -18
-8z"/>
</g>
</svg>
